<svg width="609" height="572" viewBox="0 0 609 572" fill="none" xmlns="http://www.w3.org/2000/svg"><g clip-path="url(#clip0_1_1571)" fill-rule="evenodd" clip-rule="evenodd" stroke="#1D1F20" stroke-width="2"><path d="M613.179 209.194v-1.452c-77.733-64.205-161.917-126.91-309.292-225.653a.538.538 0 10-.597.896C451.082 82.005 535.294 144.76 613.179 209.14v.055z" fill="#fff"/><path d="M518.719 135.313l.028-.007 94.431-29.119v-.57l-94.563 29.161-35.599 5.606c-82.866 12.614-163.88 21.534-239.891 20.45a.273.273 0 00-.278.271c0 .146.125.271.271.271 86.918 1.236 180.357-10.6 275.601-26.063z" fill="#fff"/><path d="M198.008 525.158L5.835 580H0l190.827-55.738 7.181.896zm211.037-9.441l-140.09 64.282h-8.985l136.947-61.58 12.128-2.702z" fill="#1D1F20"/><path d="M395.564 532.798c31.887-2.702 87.945-29.369 114.496-41.358l102.799-48.208v-22.923L196.662 519.76c-51.188 16.185-77.892 57.912 198.902 13.038z" fill="#fff"/><path d="M294.458 531.903c65.757-8.461 110.458-17.387 143.621-26.577l67.201-26.619v-8.599c-.215-1.855.153-3.126.68-4.237 13.418-7.072 25.892-11.33 38.165-15.012 1.686.049 3.275.132 1.367 1.772.978 2.834 1.401 5.946 1.637 9.141l65.737-27.577V282.458c-1.297-1.32-2.505-2.251-3.601-2.57l-174.169-69.394-22.534-57.746-1.825-.292-5.321-12.753 1.824-.424 1.402-1.681-.978-7.71 33.739-22.986 10.504-1.688c3.6-1.07 5.446-2.146 6.445-3.216l2.38-.424.978-2.945 12.176-1.959 7.146 6.863.555-.556.846-1.827 3.081-1.125-1.547-.278-.132-4.341 1.679-.146c1.36-.424 2.067-.848 1.956-1.257l.146-3.793-.146-1.813-2.102-4.626 18.06.701c3.42.702 3.344 5.404 3.642 9.67l.146-5.043c-.514-4.384-2.512-6.225-5.599-6.176l-21.001-.98-1.124-1.125-.847.848-1.679.556c-33.107-1.64-54.226 5.647-72.376 15.143l-3.781-.278h-1.124l-.291 2.938-8.957 5.182c-5.439 3.446-5.953 8.794-4.621 14.865l.985.278c-.326-7.3.93-11.774 3.913-13.17l10.088-5.328.278 1.827 3.781-1.125-.847 2.945-.874.708 9.831 6.009 3.004.556-1.366-3.286.811-3.556 21.036-2.73-39.595 27.889-2.185 14.213 3.004.271 4.635-3.001 5.189 12.844-1.089 1.09 19.384 49.757c-19.773-8.231-35.161-13.122-45.602-14.191-40.788-1.876-83.415 2.146-127.796 11.76-9.963 1.514-18.101 4.446-23.749 9.565-9.047 8.523-16.491 23.062-22.659 42.373l-60.894-7.662c-15.492-2.66-23.062 4.112-23.485 19.408-4.26 1.591-7.333 13.317-10.101 27.612-.812 8.246 1.082 12.414 6.001 12.031 5.398 1.299 8.11-.083 9.831-2.466 4.51-17.122 9.269-36.892 12.016-35.544 9.269-1.153 17.588-5.14 25.4-10.656l-1.103-3.008-25.934 10.934c-5.259-1.785-9.567-1.66-13.383-.549 1.852-10.676 6.334-16.129 13.931-15.31l25.386 2.73 23.214 15.317c3.823 3.063 7.653 4.467 11.468 4.64 1.742-.09 2.706.577 3.005 1.917-18.83 59.232-26.025 110.483-30.59 159.941.063 13.393 1.638 15.428 3.275 16.949-2.019 5.502-2.983 11.538-3.538 17.769-.77 15.101 0 29.439.811 43.748-.409 6.877 5.065 8.697 10.38 10.656 34.384 10.593 72.584 11.621 112.775 7.676zm-91.906-156.217l13.3-72.993 21.174-.597-3.018 64.538-13.931.271-7.236 3.265 1.061-.486a54.454 54.454 0 00-4.44 2l-5.467 2.473c-.215.327-.423.66-.632 1.001-.256.18-.534.354-.811.528zm204.473-269.944l-.492-1.487-.895-2.882 4.065 4.07-2.678.299zm34.183-.597l-1.491-.987 4.974-2.584 14.209-2.487v.688l-3.386 2.584-14.306 2.786zm-28.417-1.487l-4.78-3.786c18.808-10.843 41.023-17.324 70.149-14.927h.895l.194 1.597-3.975.89-.403 4.285-.194 1.688-61.886 10.253zm68.553-7.071l-.999-1.487-3.781-3.383.208-2.688 3.081-.493.298-2.39c1.533-1.326 3.719 1.216 6.064 4.772l-.209 2.286c-1.873-.216-3.323.486-3.871 3.188l-.791.195z" fill="#fff"/><path d="M434.978 210.203l-22.423-57.447-1.825-.292-5.321-12.753 1.825-.424 1.401-1.681-.978-7.711 33.739-22.985 10.504-1.688c3.601-1.07 5.446-2.147 6.445-3.216l2.38-.424.978-2.945 12.176-1.96 7.146 6.864.555-.556.847-1.827 3.08-1.125-1.547-.278-.132-4.341 1.679-.146c1.36-.424 2.068-.848 1.957-1.258l.145-3.792-.145-1.813-2.103-4.627 18.06.702c3.42.702 3.344 5.404 3.642 9.67l.146-5.044c-.514-4.383-2.512-6.224-5.599-6.175l-21.001-.98-1.124-1.125-.846.848-1.679.555c-33.108-1.639-54.227 5.648-72.376 15.144l-3.782-.278h-1.124l-.291 2.938-8.957 5.182c-5.439 3.445-5.953 8.794-4.62 14.865l.985.278c-.326-7.301.929-11.774 3.913-13.17l10.087-5.328.278 1.827 3.781-1.126-.846 2.946-.875.708 9.831 6.009 3.005.556-1.367-3.286.812-3.557 21.035-2.73-39.594 27.89-2.186 14.212 3.004.271 4.635-3 5.189 12.843-1.089 1.091 19.385 49.757c-1.339-.556-2.664-1.104-3.962-1.639l.167.257 12.98 5.314zm-27.952-104.46l-.493-1.487-.895-2.882 4.066 4.07-2.678.299zm34.183-.598l-1.492-.986 4.975-2.584 14.208-2.487v.688l-3.385 2.584-14.306 2.785zm-28.418-1.486l-4.78-3.786c18.808-10.843 41.024-17.324 70.149-14.928h.895l.194 1.598-3.975.89-.403 4.285-.194 1.688-61.886 10.253zm68.553-7.072l-.999-1.486-3.781-3.383.208-2.688 3.081-.493.298-2.39c1.533-1.327 3.719 1.216 6.064 4.772l-.208 2.286c-1.874-.216-3.324.486-3.872 3.188l-.791.195z" fill="#fff"/><path d="M390.707 107.195l10.088-5.328.277 1.827 3.782-1.126-.847 2.946-.874.708 9.831 6.009 3.004.555-1.367-3.285.618-2.681-.555-.403-2.276-2.883.111-.104-4.489-3.557c18.809-10.843 41.024-17.324 70.149-14.928h.895l.195 1.598-3.976.89-.402 4.285-.188 1.626.41-.007-.909 2.896-.236.535 7.049 6.773.555-.556.846-1.827 3.081-1.125-1.547-.278-.132-4.341 1.679-.146c1.36-.424 2.067-.848 1.956-1.258l.146-3.792-.146-1.813-2.102-4.627 18.059.702c3.421.702 3.345 5.404 3.643 9.67l.146-5.044c-.514-4.383-2.512-6.224-5.599-6.175l-21.001-.98-1.124-1.125-.847.848-1.679.555c-33.107-1.639-54.226 5.648-72.376 15.144l-3.781-.278h-1.124l-.291 2.938-8.957 5.182c-5.439 3.445-5.953 8.794-4.621 14.865l.985.278c-.298-7.287.958-11.76 3.941-13.163zm16.318-1.452l-.492-1.487-.895-2.882 4.065 4.07-2.678.299zm74.319-9.155l-.999-1.487-3.781-3.383.208-2.688 3.08-.493.299-2.39c1.533-1.327 3.718 1.216 6.063 4.772l-.208 2.286c-1.873-.216-3.323.486-3.871 3.188l-.791.195z" fill="#fff"/><path d="M399.838 142.92l1.908-12.42 6.466-.979 29.312-19.978.722-1.626 1.623-.91.403.667 1.124-.764.347-.062-1.062-.751c-.444-1.875-2.324-2.32-4.516-2.445l-2.574 1.577-36.737 25.875-1.887 12.233.979-.062c.95.68 1.852 1.43 3.892-.355zm35.14 67.283l-22.423-57.447-1.152-.188-.235.507c-.431.66-1.027 1.327-3.719 2.237l.048.125-.853.869-.069.069c1.214.313 2.678.125 4.495-.75l20.599 53.23 3.309 1.348zM231.781 484.764l7.722-32.585c15.444-5.46 43.168-19.603 71.974-34.51 9.248-4.834 14.639-12.441 17.83-21.707 8.929-37.191 25.573-73.952 46.789-110.142 5.974-9.843 5.405-19.492-1.214-28.592l-18.843-24.944c-6.112-6.814-15.472-11.482-24.914-12.781l-2.276-.917c-48.121-8.996-81.062.812-112.741 12.205-3.718 7.057-7.069 15.441-10.122 24.986l-60.894-7.662c-15.492-2.661-23.061 4.112-23.485 19.408-4.259 1.591-7.333 13.316-10.101 27.612-.812 8.245 1.082 12.413 6.001 12.031 5.398 1.299 8.11-.083 9.831-2.466 4.51-17.123 9.269-36.892 12.017-35.545 9.269-1.153 17.587-5.14 25.399-10.655l-1.103-3.008-25.934 10.933c-5.259-1.785-9.567-1.66-13.383-.548 1.852-10.677 6.334-16.13 13.931-15.31l25.386 2.73 23.214 15.317c3.823 3.063 7.653 4.466 11.469 4.64 1.741-.091 2.705.576 3.004 1.917-18.809 59.155-26.004 110.364-30.569 159.774l.049.104c2.081 4.536 5.897 8.183 9.644 11.871.43 10.073.09 20.895-.278 31.759 3.08 4.113 45.173 9.128 51.597 6.085zm-29.229-109.079l13.3-72.992 21.174-.598-3.018 64.539-13.931.271-7.236 3.265 1.061-.486a53.778 53.778 0 00-4.44 2l-5.467 2.473c-.215.326-.423.66-.631 1a17.76 17.76 0 01-.812.528z" fill="#fff"/><path d="M252.047 447.54l4.697-2.244c4.405-19.873 9.525-39.747 16.102-59.614 1.645-.68 2.866.07 2.866 4.898 11.343-50.848 35.341-105.398 68.713-162.699l1.214-2.042c-.965-1.153-2.602-2.306-6.931-3.466l-.409.813-4.892-1.022-3.26 3.877-12.024-.403 1.228-3.474c-32.719-2.132-58.618.389-79.522 6.329l1.02 2.042-16.11 2.855v-2.647l-5.099 1.834c-3.941 11.163-7.889 22.319-11.822 33.482 34.481-1.091 71.606-2.925 109.889-5.106l-.812 2.251c-34.78 2.431-70.073 4.557-107.655 5.3-16.256 49.18-24.512 93.825-28.335 135.961-.041.084.007.188.153.292l.021-.007 18.205-14.802c.444-6.217 1.894-11.031 4.1-14.782-.27.173-.548.347-.825.528l13.3-72.993 21.174-.597-3.018 64.538 2.782-.048c7.41 0 6.237.507 8.513 4.425 7.673.805 16.588 1.125 26.336 1.104l-.021.327-12.758 50.187-.666-.028a340.567 340.567 0 00-6.154 24.931zm19.453-72.77l.125-2.327.063-.23-.188 2.557zm-57.591-5.085l-3.531 1.598-.909.402a54.702 54.702 0 014.44-2z" fill="#fff"/><path d="M258.867 422.629l12.758-50.187-.124 2.327.187-2.557-.063.23.021-.327c-9.748.021-18.663-.298-26.336-1.104-2.276-3.918-1.103-4.425-8.513-4.425l-16.706.319-16.082 7.259c-2.567 3.877-4.239 8.996-4.725 15.783l-18.205 14.802-.021.007c3.337 2.279 52.617 7.961 80.376 7.058a398.639 398.639 0 00-3.233 10.781l.666.034zm-41.933-128.028l86.231-1.591c4.475-10.329 7.68-17.915 12.148-26.987l-96.804 5.523-1.575 23.055zm22.486 158.28a.262.262 0 00.187-.326.263.263 0 00-.326-.188c-19.218 5.599-45.658 4.981-58.632-5.605a.28.28 0 00-.382.041c-.09.111-.083.292.042.382 13.168 10.746 39.837 11.316 59.111 5.696zm-62.865-45.026l.028-.368c4.295-51.959 17.484-110.323 41.121-176.202l.174-.473-2.894.723-.048.125c-5.044 11.892-9.803 26.098-14.355 41.963-15.485 49.868-22.492 93.005-25.864 133.26l-.007.187 1.845.785zm-.471-.792l-.805-.34 1.429-15.032c3.802-35.871 10.851-74.32 24.401-117.915 3.975-13.886 8.103-26.48 12.446-37.365l1.832-4.432 1.644-.409-4.149 11.802c-19.558 56.856-31.186 108.03-35.931 154.237l-.867 9.454z" fill="#fff"/><path d="M127.345 304.709c4.51-17.122 9.269-36.892 12.016-35.544 9.269-1.153 17.588-5.141 25.4-10.656l-1.103-3.008-25.934 10.934c-5.259-1.785-9.567-1.66-13.383-.549 1.852-10.677 6.334-16.129 13.931-15.31l25.386 2.73 23.214 15.317c3.823 3.063 7.653 4.466 11.469 4.64.666-.028 1.214.042 1.665.229l-.063.028.701-.361c1.686-5.8 3.365-11.614 5.058-17.429l-60.61-7.62c-15.492-2.66-23.061 4.113-23.485 19.408-4.259 1.591-7.333 13.317-10.101 27.612-.812 8.246 1.082 12.414 6.001 12.032 5.398 1.305 8.117-.077 9.838-2.453zm247.17-40.534c-8.659-12.871-17.928-25.437-28.363-37.427-5.897 10.392-11.787 21.923-17.684 34.079l47.06 17.38c4.246-4.105 2.164-9.003-1.013-14.032zM271.396 407.507l47.393-12.691 1.339 1.326c13.855-38.149 26.788-75.958 49.058-117.275l-44.055-14.699c-26.566 52.64-42.322 98.291-53.735 143.339z" fill="#fff"/><path d="M311.442 398.157l8.34-1.667c11.662-37.198 28.126-74.403 47.726-111.6l-2.339-.667c-25.149 41.497-33.343 74.507-47.725 110.607l-6.002 3.327zm-99.76 16.813l-13.494-66.206-2.748-1.146 10.983-33.447-1.603-.23-11.669 32.537-1.603.23-.909 3.896.909.23c-2.782 12.906-5.377 25.812-7.548 38.719l2.282-1.146c2.144-10.739 4.274-21.263 6.411-31.391 4.44 19.165 8.721 38.337 11.204 57.495l1.832-.229c-3.871-19.874-7.847-39.643-12.356-58.871l1.38-6.418 2.283.688 13.036 65.289h1.61z" fill="#fff"/><path d="M259.172 414.537c.146-.007.257-.146.25-.292-.007-.153-.132-.271-.278-.257-26.919 1.598-53.914 2.806-83.518-4.897-.146-.042-.299.041-.326.194a.258.258 0 00.194.32c29.694 7.738 56.759 6.515 83.678 4.932zm-20.723 67.901c23.706-6.6 48.704-16.151 73.978-26.397.764-10.218 2.637-20.804 4.933-31.529.486-2.904-.361-3.474-1.894-2.848l-1.325 1.132c-18.004 9.718-38.332 20.318-60.332 31.529-4.468 1.425-8.207 4.321-11.191 8.732l-6.827 16.338c-1.193 2.626-.666 3.925 2.658 3.043zm-62.025-25.07c-.25-4.765-1.832-8.558-5.002-11.225.631 3.862 1.609 5.001 2.615 5.925-1.533 4.182-2.463 8.669-3.059 13.316.999 4.411 3.718 7.481 7.34 9.836-.909-5.668-1.499-11.677-1.894-17.852z" fill="#fff"/><path d="M294.458 531.904c65.459-8.419 110.049-17.311 143.164-26.452l-.909-1.813 1.276-39.379c-34.086 10.843-222.04 34.725-267.976 11.142-.382 13.191.569 25.542 1.284 38.177-.41 6.877 5.064 8.697 10.379 10.656 34.391 10.586 72.591 11.614 112.782 7.669z" fill="#fff"/><path d="M313.094 537.864c-11.92-14.337-23.825-29.251-35.724-53.661a.57.57 0 00-.513-.313c-32.608 1.855-66.063 2.855-106.761-8.585l-.02 1.125c34.974 9.76 65.48 10.239 93.738 9.072l12.745-.507 2.081 4.168c11.218 21.916 22.43 35.933 33.635 49.395.187.23.527.258.763.063a.545.545 0 00.056-.757zm116.945-119.346l5.98-174.16-10.58-2.764c-40.871 6.453-92.496 144.207-102.626 210.559 39.151-14.629 77.06-28.008 107.226-33.635z" fill="#fff"/><path d="M426.403 387.168l1.554-98.048-39.789-5.286c-32.386 51.16-39.553 87.177-50.993 125.757 28.383-10.669 58.382-17.546 89.228-22.423z" fill="#fff"/><path d="M424.877 385.884l1.526-94.464-39.109-5.106c-31.831 49.292-38.873 83.989-50.119 121.159 27.488-8.21 56.974-14.851 87.702-21.589zM217.191 230.29c55.184-20.068 88.528-17.741 120.858-9.655 14.077-18.346 28.425-29.036 43.202-28.439l-1.047-.125c-15.361-.708-30.978-.576-46.852.368-30.762 3.043-56.252 10.913-82.72 17.894l3.212 1.924c-19.371 8.162-27.44 12.921-36.653 18.033z" fill="#fff"/><path d="M436.491 243.901c-5.176-14.657-13.897-30.627-23.79-42.651l-1.485-.514c10.171 12.052 19.211 28.431 24.512 43.436a.411.411 0 00.513.25.398.398 0 00.25-.521zm-97.929-22.083c12.315-16.018 24.81-27.89 39.533-29.779a70.01 70.01 0 00-3.275-.236c-13.702 3.105-25.462 14.65-36.91 29.522a.403.403 0 00.084.569c.18.132.423.105.568-.076z" fill="#fff"/><path d="M612.859 298.117v-1.779l-178.304-57.279 1.721 5.154 176.583 53.904z" fill="#fff"/><path d="M612.859 289.315v-3.758l-182.585-68.992c-30.416-10.454-38.373 5.925-50.085 22.09 14.896-12.99 29.889-23.556 45.617-17.318l187.053 67.978zM473.865 491.072l3.296-1.23 28.188-11.142.34-12.975c11.781-5.703 18.358-8.732 34.641-14.011.278.236 2.866-1.021 3.088-.632.236-.07.471-.146.7-.216 1.686.049 3.275.132 1.367 1.772.978 2.834 1.402 5.946 1.637 9.141l65.737-27.577v-5.384l-9.172 3.64.645-18.317-19.745 5.196.153 20.255-24.276 9.239-.166-22.687-86.037 27.056-.396 37.872zm-39.775-73.833l178.769-28.369v-74.188l-175.203-39.219-3.566 141.776z" fill="#fff"/><path d="M559.944 448.901l25.08-21.297-.319-118.749-25.934-5.501c.798 47.686 1.242 95.228 1.173 145.547z" fill="#fff"/><path d="M574.263 414.96l9.484-6.204.167-97.666-10.636-2.174c-.166 34.871.569 70.909.985 106.037v.007zm-13.272 7.752l.007-.007 11.489-7.287-.506-106.634-12.273-2.229c.194 37.482.666 77.966 1.283 116.157zm-.853 26.946l24.768-9.085v-21.882l-24.768 6.982v23.985z" fill="#fff"/><path d="M572.966 423.158l.763-.355-.7-116.345-.847-.257.784 116.957zm-11.531.812l10.685-3.209-.424-111.594-11.766-2.091 1.505 116.894zm12.759-3.409l9.436-3.077-.153-105.759-9.873-1.938.59 110.774zm29.729 14.177l8.936-8.461V315.058l-9.81-2.32c.61 39.97.936 79.814.874 122z" fill="#fff"/><path d="M604.714 412.773h.007l8.131-5.766V317.26l-9.102-1.848c.152 31.426.513 65.359.964 97.361zm-1.027 20.665l9.172-3.952v-17.234l-8.43 2.82-.742 18.366z" fill="#fff"/><path d="M605.054 413.837l7.805-2.605v-66.261l-.09-27.355-8.846-1.764 1.131 97.985zm-167.932 84.759l36.396-14.532 2.463-200.313-35.654-7.606c.292 71.832-1.096 146.874-3.205 222.451z" fill="#fff"/><path d="M440.876 459.5l30.381-8.141 2.719-160.309-32.067-6.362c-.922 56.362-1.207 117.282-1.033 174.812z" fill="#fff"/><path d="M441.986 461.508l28.508-7.794 2.678-162.163-30.721-6.03-.465 175.987zm170.873-151.195v-2.807l-155.027-40.198c-5.294-.577-8.083-2.265-9.02-4.794-2.088-9.315-5.682-15.129-10.663-17.678l.187 4.237c3.747 2.688 5.814 7.072 7.535 11.795.985 7.058 4.815 9.496 9.748 10.121l157.24 39.324zm-52.971 15.269a.545.545 0 00-.465-.612l-84.774-12.058a.543.543 0 00-.61.451.546.546 0 00.464.618l84.761 12.059a.545.545 0 00.624-.458z" fill="#fff"/><path d="M521.286 403.403l.291-82.544a.531.531 0 00-.534-.535.538.538 0 00-.548.535l-.291 82.544a.53.53 0 00.534.535.533.533 0 00.548-.535zm82.387-71.569a.537.537 0 00-.451-.618l-18.566-3.029a.546.546 0 00-.617.445.554.554 0 00.444.632l18.573 3.022a.54.54 0 00.617-.452zM436.789 505.575l36.528-14.059.333-7.141-36.75 14.497-.111 6.703zm166.766-67.412l9.304-3.918v-4.647l-9.165 3.883-.139 4.682zm-43.528 18.108l24.678-10.441.222-5.369-24.748 9.218-.152 6.592zM363.178 292.884l2.851-30.147c1.658-6.704-.249-11.629-10.462-12.379l1.27-11.753c.645-7.162-1.062-7.877-3.802-5.71l-6.661 7.62c3.636-2.813 6.931-5.126 6.973-2.535l-1.894 12.059c-3.525.667-6.848 1.889-8.569 7.939-2.379 11.115-2.955 22.215-3.489 33.329-.868 6.898 1.089 9.822 4.44 10.795l10.469 1.278c6.966.5 8.208-4.703 8.874-10.496zm-19.017 113.643c2.762-.89 5.509-1.772 8.277-2.64a651.039 651.039 0 0123.339-6.801 813.967 813.967 0 0127.502-6.918 878.61 878.61 0 0110.123-2.327 417.98 417.98 0 0011.336-2.702c-6.695.937-13.362 2.327-19.974 3.751a547.099 547.099 0 00-31.956 7.905c-7.091 2-14.146 4.154-21.126 6.502a282.68 282.68 0 00-7.188 2.514c-2.206.806-4.398 1.619-6.528 2.605 2.088-.542 4.135-1.229 6.195-1.889zm-34.558 35.358c-.485-1.507-1.602-2.237-3.725-1.771l-8.485 1.966-1.346.368c-3.282.681-3.83 5.883-2.803 8.412 1.686 3.174 4.759 3.668 8.388 3.084 8.103-2.487 8.936-7.009 7.971-12.059z" fill="#fff"/><path d="M300.743 447.809c.299-3.001-1.151-5.446-3.24-5.446-2.081 0-4.017 2.445-4.315 5.446-.298 3.001 1.145 5.446 3.233 5.446 2.081 0 4.024-2.445 4.322-5.446zm-10.025 2.169c-.471-1.508-1.595-2.244-3.718-1.772l-8.492 1.959-1.339.368c-3.282.688-3.83 5.898-2.803 8.412 1.686 3.175 4.759 3.682 8.388 3.092 8.096-2.487 8.943-7.023 7.964-12.059z" fill="#fff"/><path d="M281.866 455.903c.298-3.008-1.145-5.446-3.233-5.446-2.082 0-4.024 2.431-4.323 5.446-.298 3.001 1.152 5.446 3.24 5.446 2.082-.007 4.017-2.445 4.316-5.446zm330.993-139.99v-2.807l-175.195-41.991-.195 5.391 175.39 39.407z" fill="#fff"/><path d="M612.859 314.537v-1.431l-175.196-41.991-.083 2.39 175.279 41.032z" fill="#fff"/></g><defs><clipPath id="clip0_1_1571"><path fill="#fff" d="M0 0h609v572H0z"/></clipPath></defs></svg>