<svg width="217" height="421" viewBox="0 0 217 421" fill="none" xmlns="http://www.w3.org/2000/svg"><path fill="#fff" stroke="#7000FF" stroke-width="2" d="M16.259 61.381h114.452v461.618H16.259zm-11.444-.002h4.578v461.618H4.815z"/><path fill="#fff" stroke="#7000FF" stroke-width="2" d="M1 159.09h136.58v40.776H1z"/><path d="M148.723 50.707v-66.708h66.708v66.708h-66.708z" fill="#fff"/><path d="M148.723 50.707v-66.708m0 66.708h66.708m-66.708 0l66.708-66.708m-66.708 0h66.708m-66.708 0l66.708 66.708m0-66.708v66.708" stroke="#7000FF" stroke-width="2" stroke-dasharray="10 10"/><path d="M165.66 442.951h-17.903V61.381h17.903m0 381.57V61.381m0 381.57h15.666M165.66 61.381h15.666m0 0v381.57m0-381.57h17.904m-17.904 381.57h17.904m0 0h17.903V61.381H199.23m0 381.57V61.381" stroke="#7000FF"/><circle cx="182.95" cy="306.361" r="18.683" fill="#fff" stroke="#7000FF"/><path d="M182.953 325.542a19.183 19.183 0 100-38.366v38.366z" fill="#7000FF"/><path fill="#fff" stroke="#7000FF" d="M81.05 50.709V-2.657h53.366v53.366z"/></svg>