<svg width="11" height="11" viewBox="0 0 11 11" fill="none" xmlns="http://www.w3.org/2000/svg"><path fill-rule="evenodd" clip-rule="evenodd" d="M6.49 1.454c-.153-.939-1.486-.939-1.639 0a.828.828 0 01-1.36.502c-.714-.62-1.735.248-1.256 1.067.33.564-.076 1.276-.724 1.27C.571 4.281.34 5.61 1.227 5.926a.846.846 0 01.25 1.444c-.726.603-.059 1.772.82 1.437.606-.23 1.229.298 1.11.942-.174.936 1.079 1.397 1.54.568a.826.826 0 011.447 0c.461.83 1.714.368 1.54-.568-.119-.644.504-1.173 1.11-.942.879.335 1.545-.834.82-1.437a.846.846 0 01.25-1.444c.887-.316.655-1.645-.284-1.635-.648.007-1.054-.705-.724-1.27.479-.818-.542-1.686-1.256-1.066a.828.828 0 01-1.36-.502zM5.67 7.75a2 2 0 100-4 2 2 0 000 4z" fill="#6B15AA"/></svg>