<svg width="228" height="95" viewBox="0 0 228 95" fill="none" xmlns="http://www.w3.org/2000/svg"><path d="M88 36L1 44.5 130 100l97.5-27.5L88 36z" fill="#6C667A"/><path d="M1 44.5L88 36l139.5 36.5M1 44.5L130 100M1 44.5V103h129m97.5-30.5L130 100m97.5-27.5V103H130m0-3v3" stroke="#1D1F20"/><path d="M86 77.89L99 84l77.5-23-16-4L122 68" stroke="#B9A0FF"/><path d="M199.5 68.499L215 72l-14 3-.5 1.5-8 2.642h-4.318L131 96.502 119 92l8-2.501 3.5-2.999 9.5-3 2 .499 57.5-15.5zM130 100L1 44.5V103h129v-3zm97.5-27.5L130 100v3h97.5V72.5z" fill="#1D1F20"/><path d="M59.5 103H13V41.262l11-1.748V27.5L159 24l13 1.5V58l-7.5-2-25.5-6v-8.738L48 47.5l-.5 32 12 5V103z" fill="#AFF340"/><path d="M44.5 87.5V103m0-15.5l15-3m-15 3L35 81m9.5 22h15V84.5m-15 18.5H13V41.262M59.5 84.5l-12-5M35 81l12.5-1.5M35 81l-1-32.5m13.5 31l.5-32m-14 1l14-1m-14 1v-19m14 18l91-6.238M34 29.5l138-4m-138 4l-10-2m148-2V39m0-13.5L159 24 24 27.5M172 39l-7.5.514M172 39v19l-7.5-2m0-16.486V56m0-16.486L139 41.262M164.5 56L139 50v-8.738M24 27.5v12.014m-11 1.748L24 46v-6.486m-11 1.748l11-1.748" stroke="#025A4A"/><path d="M88 26V1.5l14.5-1H127L126 41l-23.5 1-1.5-1V26.897L88 26z" fill="#AFF340"/><path d="M102.5 27v15m0-15V.5m0 26.5l-1.5-.103M102.5 42l23.5-1 1-40.5h-24.5m0 41.5l-1.5-1V26.897M102.5.5L88 1.5V26l13 .897" stroke="#025A4A"/><path d="M126 2v22h-2.5v22h1.5v2h-1v3.5h3l-2 6.5h-1v4h-4v-4h-1l-.75-3.25-2.75.25-5-.5 1-6.5 1-12.5H106l2-18V2h18z" fill="#E7DCFF"/><path d="M121.5 3l-.267 11.48M120 48h-1.5v-2h2l.244-10.5M120 48v3.5m0-3.5h4m-4 3.5h4m-4 0h-2.5l.75 3.25M124 51.5V48m0 3.5h3l-2 6.5h-1m0-10h1v-2h-1.5V24h2.5V2h-18v12.48m6 21.02l1-20.5m-1 20.5h-1.5m1.5 0h4.5M115 15l-7-.52m7 .52l6.233-.52m-13.233 0v3.02l-2 18h6.5m8.733-21.02l-.489 21.02m0 0H118.5m-6 0l-1 12.5m0 0l-1 6.5 5 .5m-4-7l4 .571m3 .429V35.5m0 13.5l-3-.429m3 .429l-.25 5.75m-2.75.25v-6.429m0 6.429l2.75-.25m0 0L119 58h1m0 0v4h2m-2-4h4m0 0v4h-2m0 0v6" stroke="#7000FF"/><path d="M121 67.5l-6.5-5m9 4.5l3.5-2.5m-4 3.5h6m-7 .5l.5 1.75.5 1.75m-2-3.5l-4.5 1.5" stroke="#fff"/></svg>