<svg width="313" height="324" viewBox="0 0 313 324" fill="none" xmlns="http://www.w3.org/2000/svg"><path d="M0 59h24M0 23h24" stroke="#A2ACB1"/><path d="M8 23l-2.887 5h5.774L8 23zm0 36l2.887-5H5.113L8 59zm-.5-31.5v27h1v-27h-1z" fill="#A2ACB1"/><path d="M24 0v26M55 0v26" stroke="#A2ACB1"/><path d="M55 8l-5-2.887v5.774L55 8zM24 8l5 2.887V5.113L24 8zm26.5-.5h-22v1h22v-1z" fill="#A2ACB1"/><path d="M55 0v29m55-29v29" stroke="#A2ACB1"/><path d="M110 8l-5-2.887v5.774L110 8zM55 8l5 2.887V5.113L55 8zm50.5-.5h-46v1h46v-1z" fill="#A2ACB1"/><path d="M293 81V58m19 23V58" stroke="#A2ACB1"/><path d="M312 73l-5 2.887v-5.774L312 73zm-19 0l5-2.887v5.774L293 73zm14.5.5h-10v-1h10v1z" fill="#A2ACB1"/><path d="M24 58.864V23.153h30.977L59.163 19h40.186c2.679 0 7.814 6.644 10.046 9.966H312v29.898h-19.256L283.535 68h-40.186l-9.209-9.136H24zM24 88h288v42H24z" fill="#fff" stroke="#3F2D4E" stroke-width="2"/><path d="M61 221v-15m-37 15v-15" stroke="#A2ACB1"/><path d="M24 213l5 2.887v-5.774L24 213zm37 0l-5-2.887v5.774L61 213zm-32.5.5h28v-1h-28v1z" fill="#A2ACB1"/><path d="M191 221v-24m-42 24v-24" stroke="#A2ACB1"/><path d="M149 213l5 2.887v-5.774L149 213zm42 0l-5-2.887v5.774l5-2.887zm-37.5.5h33v-1h-33v1z" fill="#A2ACB1"/><path d="M131 221v-41m-70 41v-41" stroke="#A2ACB1"/><path d="M61 213l5 2.887v-5.774L61 213zm70 0l-5-2.887v5.774l5-2.887zm-65.5.5h61v-1h-61v1z" fill="#A2ACB1"/><path d="M24 206h36.56v-25.789h70.898l16.414 16.21h42.529l16.414-16.21h65.641V206H312v-56H24v56z" fill="#fff" stroke="#3F2D4E" stroke-width="2"/><path d="M312 316v-61M24 316v-61" stroke="#A2ACB1"/><path d="M24 308l5 2.887v-5.774L24 308zm288 0l-5-2.887v5.774l5-2.887zm-283.5.5h279v-1h-279v1z" fill="#A2ACB1"/><path d="M98 304v-49m-74 49v-49" stroke="#A2ACB1"/><path d="M24 296l5 2.887v-5.774L24 296zm74 0l-5-2.887v5.774L98 296zm-69.5.5h65v-1h-65v1z" fill="#A2ACB1"/><path d="M217 304v-21m-92 21v-21" stroke="#A2ACB1"/><path d="M125 296l5 2.887v-5.774L125 296zm92 0l-5-2.887v5.774l5-2.887zm-87.5.5h83v-1h-83v1z" fill="#A2ACB1"/><path d="M312 226H24v29.671h73.825L125.366 283h91.279l27.541-27.329H312V226z" fill="#fff" stroke="#3F2D4E" stroke-width="2"/></svg>